<svg xmlns="http://www.w3.org/2000/svg" viewBox="0 0 100 100"><g stroke="#05070a" stroke-width="2" stroke-linecap="round" opacity="0.38"><line x1="14" y1="22" x2="20" y2="22"/><line x1="14" y1="34" x2="20" y2="34"/><line x1="14" y1="46" x2="20" y2="46"/><line x1="14" y1="58" x2="20" y2="58"/><line x1="14" y1="70" x2="20" y2="70"/><line x1="14" y1="82" x2="20" y2="82"/></g><path d="M27 10 H52 A22 22 0 0 1 52 54 H38 V89 A3 3 0 0 1 35 92 H27 A3 3 0 0 1 24 89 V13 A3 3 0 0 1 27 10 Z M38 22 V42 H50 A10 10 0 0 0 50 22 Z" fill="#05070a" fill-rule="evenodd"/><path d="M38 62 H62 A4 4 0 0 1 62 70 H38 Z" fill="#34e2ff"/></svg>
